<svg xmlns="http://www.w3.org/2000/svg" xmlns:xlink="http://www.w3.org/1999/xlink" version="1.1" x="0px" y="0px" viewBox="0 0 100 125" style="enable-background:new 0 0 100 100;" xml:space="preserve"><path d="M90,5H10C7.3,5,5,7.2,5,9.9V90c0,2.7,2.3,4.9,5,4.9h80c2.8,0,5-2.2,5-4.9V9.9C95,7.2,92.7,5,90,5z   M90.3,9.9v40.4H49.6V9.6H90C90.1,9.6,90.3,9.8,90.3,9.9z M9.7,90.1V50.4h39.9v40H10C9.9,90.4,9.7,90.2,9.7,90.1z"/><text x="0" y="115" fill="#000000" font-size="5px" font-weight="bold" font-family="'Helvetica Neue', Helvetica, Arial-Unicode, Arial, Sans-serif">Created by Vasily Gedzun</text><text x="0" y="120" fill="#000000" font-size="5px" font-weight="bold" font-family="'Helvetica Neue', Helvetica, Arial-Unicode, Arial, Sans-serif">from the Noun Project</text></svg>